<svg width="100%" height="100%" viewBox="0 0 24 24" fill="none" xmlns="http://www.w3.org/2000/svg">
  <path d="M22 16C22 19.3137 19.3137 22 16 22C12.6863 22 10 19.3137 10 16C10 11.6863 16 2 16 2C16 2 22 11.6863 22 16Z" stroke="#51774a" stroke-width="1" stroke-linecap="round" stroke-linejoin="round" fill="#6c9e63"/>
 <path d="M8 9C8 10.6569 6.65685 12 5 12C3.34315 12 2 10.6569 2 9C2 6.84315 5 2 5 2C5 2 8 6.84315 8 9Z" stroke="#51774a" stroke-width="1" stroke-linecap="round" stroke-linejoin="round" fill="#6c9e63"/>
 <path d="M4.93 4.93L19.07 19.07M22 12C22 17.5228 17.5228 22 12 22C6.47715 22 2 17.5228 2 12C2 6.47715 6.47715 2 12 2C17.5228 2 22 6.47715 22 12Z" stroke="currentColor" stroke-width="2" stroke-linecap="round" stroke-linejoin="round" fill="none"/>
 </svg>